<svg width="167" height="51" viewBox="0 0 167 51" fill="none" xmlns="http://www.w3.org/2000/svg">
<path d="M16.725 13.125C16.9083 13.125 17.0667 13.1917 17.2 13.325C17.3333 13.4583 17.4 13.6167 17.4 13.8V17.325C17.4 17.5083 17.3333 17.6667 17.2 17.8C17.0667 17.9333 16.9083 18 16.725 18H0.925C0.741667 18 0.583333 17.9333 0.45 17.8C0.316667 17.6667 0.25 17.5083 0.25 17.325V1.175C0.25 0.991666 0.316667 0.833333 0.45 0.699999C0.583333 0.566666 0.741667 0.499999 0.925 0.499999H16.475C16.6583 0.499999 16.8167 0.566666 16.95 0.699999C17.0833 0.833333 17.15 0.991666 17.15 1.175V4.7C17.15 4.88333 17.0833 5.04167 16.95 5.175C16.8167 5.30833 16.6583 5.375 16.475 5.375H6.75V6.95H15.1C15.2833 6.95 15.4417 7.01667 15.575 7.15C15.7083 7.28333 15.775 7.44167 15.775 7.625V10.875C15.775 11.0583 15.7083 11.2167 15.575 11.35C15.4417 11.4833 15.2833 11.55 15.1 11.55H6.75V13.125H16.725ZM33.1402 1.175C33.3902 0.724999 33.7486 0.499999 34.2152 0.499999H38.7902C38.9736 0.499999 39.1319 0.566666 39.2652 0.699999C39.3986 0.833333 39.4652 0.991666 39.4652 1.175V17.325C39.4652 17.5083 39.3986 17.6667 39.2652 17.8C39.1319 17.9333 38.9736 18 38.7902 18H34.2652C34.0819 18 33.9236 17.9333 33.7902 17.8C33.6569 17.6667 33.5902 17.5083 33.5902 17.325V9.575L31.7652 13.175C31.7152 13.2917 31.5986 13.425 31.4152 13.575C31.2319 13.725 30.9986 13.8 30.7152 13.8H29.0152C28.7319 13.8 28.4986 13.725 28.3152 13.575C28.1319 13.425 28.0152 13.2917 27.9652 13.175L26.1402 9.575V17.325C26.1402 17.5083 26.0736 17.6667 25.9402 17.8C25.8069 17.9333 25.6486 18 25.4652 18H20.9402C20.7569 18 20.5986 17.9333 20.4652 17.8C20.3319 17.6667 20.2652 17.5083 20.2652 17.325V1.175C20.2652 0.991666 20.3319 0.833333 20.4652 0.699999C20.5986 0.566666 20.7569 0.499999 20.9402 0.499999H25.5152C25.9819 0.499999 26.3402 0.724999 26.5902 1.175L29.8652 7.175L33.1402 1.175ZM53.6555 0.499999C55.2221 0.499999 56.5888 0.766666 57.7555 1.3C58.9221 1.83333 59.8138 2.55833 60.4305 3.475C61.0471 4.39167 61.3555 5.41667 61.3555 6.55C61.3555 8.41667 60.7721 9.88333 59.6055 10.95C58.4388 12 56.4555 12.525 53.6555 12.525H50.3555V17.325C50.3555 17.5083 50.2888 17.6667 50.1555 17.8C50.0221 17.9333 49.8638 18 49.6805 18H44.3055C44.1221 18 43.9638 17.9333 43.8305 17.8C43.6971 17.6667 43.6305 17.5083 43.6305 17.325V1.175C43.6305 0.991666 43.6971 0.833333 43.8305 0.699999C43.9638 0.566666 44.1221 0.499999 44.3055 0.499999H53.6555ZM53.5555 7.9C53.9555 7.9 54.2721 7.78333 54.5055 7.55C54.7388 7.3 54.8555 6.975 54.8555 6.575C54.8555 6.15833 54.7388 5.81667 54.5055 5.55C54.2721 5.28333 53.9555 5.15 53.5555 5.15H50.3805V7.9H53.5555ZM82.2707 17.225C82.304 17.2917 82.3207 17.3667 82.3207 17.45C82.3207 17.6 82.2624 17.7333 82.1457 17.85C82.0457 17.95 81.9207 18 81.7707 18H76.0957C75.8624 18 75.6457 17.9417 75.4457 17.825C75.2624 17.7083 75.129 17.5583 75.0457 17.375L72.8457 12.425H70.7457V17.325C70.7457 17.5083 70.679 17.6667 70.5457 17.8C70.4124 17.9333 70.254 18 70.0707 18H64.6707C64.4874 18 64.329 17.9333 64.1957 17.8C64.0624 17.6667 63.9957 17.5083 63.9957 17.325V1.175C63.9957 0.991666 64.0624 0.833333 64.1957 0.699999C64.329 0.566666 64.4874 0.499999 64.6707 0.499999H74.3957C75.8957 0.499999 77.204 0.741666 78.3207 1.225C79.454 1.70833 80.3207 2.40833 80.9207 3.325C81.5207 4.24167 81.8207 5.31667 81.8207 6.55C81.8207 8.81667 80.9457 10.4583 79.1957 11.475L82.2707 17.225ZM73.8707 7.8C74.2374 7.8 74.5207 7.68333 74.7207 7.45C74.9207 7.2 75.0207 6.89167 75.0207 6.525C75.0207 6.15833 74.9207 5.84167 74.7207 5.575C74.5374 5.29167 74.254 5.15 73.8707 5.15H70.7457V7.8H73.8707ZM101.686 13.125C101.869 13.125 102.028 13.1917 102.161 13.325C102.294 13.4583 102.361 13.6167 102.361 13.8V17.325C102.361 17.5083 102.294 17.6667 102.161 17.8C102.028 17.9333 101.869 18 101.686 18H85.8859C85.7026 18 85.5443 17.9333 85.4109 17.8C85.2776 17.6667 85.2109 17.5083 85.2109 17.325V1.175C85.2109 0.991666 85.2776 0.833333 85.4109 0.699999C85.5443 0.566666 85.7026 0.499999 85.8859 0.499999H101.436C101.619 0.499999 101.778 0.566666 101.911 0.699999C102.044 0.833333 102.111 0.991666 102.111 1.175V4.7C102.111 4.88333 102.044 5.04167 101.911 5.175C101.778 5.30833 101.619 5.375 101.436 5.375H91.7109V6.95H100.061C100.244 6.95 100.403 7.01667 100.536 7.15C100.669 7.28333 100.736 7.44167 100.736 7.625V10.875C100.736 11.0583 100.669 11.2167 100.536 11.35C100.403 11.4833 100.244 11.55 100.061 11.55H91.7109V13.125H101.686ZM123.826 7.45C124.01 7.45 124.168 7.51667 124.301 7.65C124.435 7.78333 124.501 7.94167 124.501 8.125V10.775C124.501 13.3083 123.635 15.1917 121.901 16.425C120.185 17.6417 117.91 18.25 115.076 18.25C112.243 18.25 109.96 17.6417 108.226 16.425C106.51 15.1917 105.651 13.2917 105.651 10.725V7.775C105.651 6.075 106.068 4.66667 106.901 3.55C107.735 2.41667 108.86 1.58333 110.276 1.05C111.693 0.516666 113.293 0.249999 115.076 0.249999C117.21 0.249999 118.968 0.599999 120.351 1.3C121.735 2 122.735 2.79167 123.351 3.675C123.985 4.55833 124.301 5.275 124.301 5.825C124.301 5.975 124.243 6.10833 124.126 6.225C124.026 6.325 123.901 6.375 123.751 6.375H118.101C117.768 6.375 117.526 6.28333 117.376 6.1C116.86 5.45 116.093 5.125 115.076 5.125C114.31 5.125 113.668 5.3 113.151 5.65C112.651 6 112.401 6.45 112.401 7V11.25C112.401 11.9167 112.651 12.4417 113.151 12.825C113.651 13.1917 114.293 13.375 115.076 13.375C116.11 13.375 116.868 13.2 117.351 12.85C117.851 12.4833 118.11 12.0583 118.126 11.575H116.576C116.393 11.575 116.235 11.5083 116.101 11.375C115.968 11.2417 115.901 11.0833 115.901 10.9V8.125C115.901 7.94167 115.968 7.78333 116.101 7.65C116.235 7.51667 116.393 7.45 116.576 7.45H123.826ZM132.466 17.15C132.25 17.7167 131.875 18 131.341 18H126.616C126.466 18 126.333 17.95 126.216 17.85C126.116 17.7333 126.066 17.6 126.066 17.45L126.091 17.3L131.541 1.325C131.608 1.10833 131.733 0.916666 131.916 0.749999C132.1 0.583332 132.35 0.499999 132.666 0.499999H139.616C139.933 0.499999 140.183 0.583332 140.366 0.749999C140.55 0.916666 140.675 1.10833 140.741 1.325L146.191 17.3L146.216 17.45C146.216 17.6 146.158 17.7333 146.041 17.85C145.941 17.95 145.816 18 145.666 18H140.941C140.408 18 140.033 17.7167 139.816 17.15L139.191 15.4H133.091L132.466 17.15ZM136.141 5.325L134.366 10.525H137.916L136.141 5.325ZM16.725 44.125C16.9083 44.125 17.0667 44.1917 17.2 44.325C17.3333 44.4583 17.4 44.6167 17.4 44.8V48.325C17.4 48.5083 17.3333 48.6667 17.2 48.8C17.0667 48.9333 16.9083 49 16.725 49H0.925C0.741667 49 0.583333 48.9333 0.45 48.8C0.316667 48.6667 0.25 48.5083 0.25 48.325V32.175C0.25 31.9917 0.316667 31.8333 0.45 31.7C0.583333 31.5667 0.741667 31.5 0.925 31.5H16.475C16.6583 31.5 16.8167 31.5667 16.95 31.7C17.0833 31.8333 17.15 31.9917 17.15 32.175V35.7C17.15 35.8833 17.0833 36.0417 16.95 36.175C16.8167 36.3083 16.6583 36.375 16.475 36.375H6.75V37.95H15.1C15.2833 37.95 15.4417 38.0167 15.575 38.15C15.7083 38.2833 15.775 38.4417 15.775 38.625V41.875C15.775 42.0583 15.7083 42.2167 15.575 42.35C15.4417 42.4833 15.2833 42.55 15.1 42.55H6.75V44.125H16.725ZM33.1402 32.175C33.3902 31.725 33.7486 31.5 34.2152 31.5H38.7902C38.9736 31.5 39.1319 31.5667 39.2652 31.7C39.3986 31.8333 39.4652 31.9917 39.4652 32.175V48.325C39.4652 48.5083 39.3986 48.6667 39.2652 48.8C39.1319 48.9333 38.9736 49 38.7902 49H34.2652C34.0819 49 33.9236 48.9333 33.7902 48.8C33.6569 48.6667 33.5902 48.5083 33.5902 48.325V40.575L31.7652 44.175C31.7152 44.2917 31.5986 44.425 31.4152 44.575C31.2319 44.725 30.9986 44.8 30.7152 44.8H29.0152C28.7319 44.8 28.4986 44.725 28.3152 44.575C28.1319 44.425 28.0152 44.2917 27.9652 44.175L26.1402 40.575V48.325C26.1402 48.5083 26.0736 48.6667 25.9402 48.8C25.8069 48.9333 25.6486 49 25.4652 49H20.9402C20.7569 49 20.5986 48.9333 20.4652 48.8C20.3319 48.6667 20.2652 48.5083 20.2652 48.325V32.175C20.2652 31.9917 20.3319 31.8333 20.4652 31.7C20.5986 31.5667 20.7569 31.5 20.9402 31.5H25.5152C25.9819 31.5 26.3402 31.725 26.5902 32.175L29.8652 38.175L33.1402 32.175ZM58.2555 39.875C58.9055 40.075 59.4638 40.5167 59.9305 41.2C60.3971 41.8667 60.6305 42.6333 60.6305 43.5C60.6305 45.35 60.0305 46.7333 58.8305 47.65C57.6305 48.55 55.8805 49 53.5805 49H43.2805C43.0971 49 42.9388 48.9333 42.8055 48.8C42.6721 48.6667 42.6055 48.5083 42.6055 48.325V32.175C42.6055 31.9917 42.6721 31.8333 42.8055 31.7C42.9388 31.5667 43.0971 31.5 43.2805 31.5H53.3305C55.6971 31.5 57.4388 31.9333 58.5555 32.8C59.6888 33.65 60.2555 34.9417 60.2555 36.675V36.75C60.2555 37.55 60.0388 38.2333 59.6055 38.8C59.1721 39.3667 58.7221 39.725 58.2555 39.875ZM53.4805 36.9C53.4805 36.6 53.3888 36.3417 53.2055 36.125C53.0388 35.9083 52.7888 35.8 52.4555 35.8H49.1055V38.075H52.4555C52.7888 38.075 53.0388 37.9583 53.2055 37.725C53.3888 37.475 53.4805 37.2 53.4805 36.9ZM52.7305 44.7C53.1138 44.7 53.3971 44.575 53.5805 44.325C53.7805 44.0583 53.8805 43.7667 53.8805 43.45V43.425C53.8805 43.1083 53.7721 42.8333 53.5555 42.6C53.3555 42.3667 53.0805 42.25 52.7305 42.25H49.1055V44.7H52.7305ZM68.7457 48.15C68.529 48.7167 68.154 49 67.6207 49H62.8957C62.7457 49 62.6124 48.95 62.4957 48.85C62.3957 48.7333 62.3457 48.6 62.3457 48.45L62.3707 48.3L67.8207 32.325C67.8874 32.1083 68.0124 31.9167 68.1957 31.75C68.379 31.5833 68.629 31.5 68.9457 31.5H75.8957C76.2124 31.5 76.4624 31.5833 76.6457 31.75C76.829 31.9167 76.954 32.1083 77.0207 32.325L82.4707 48.3L82.4957 48.45C82.4957 48.6 82.4374 48.7333 82.3207 48.85C82.2207 48.95 82.0957 49 81.9457 49H77.2207C76.6874 49 76.3124 48.7167 76.0957 48.15L75.4707 46.4H69.3707L68.7457 48.15ZM72.4207 36.325L70.6457 41.525H74.1957L72.4207 36.325ZM103.511 48.225C103.544 48.2917 103.561 48.3667 103.561 48.45C103.561 48.6 103.503 48.7333 103.386 48.85C103.286 48.95 103.161 49 103.011 49H97.3359C97.1026 49 96.8859 48.9417 96.6859 48.825C96.5026 48.7083 96.3693 48.5583 96.2859 48.375L94.0859 43.425H91.9859V48.325C91.9859 48.5083 91.9193 48.6667 91.7859 48.8C91.6526 48.9333 91.4943 49 91.3109 49H85.9109C85.7276 49 85.5693 48.9333 85.4359 48.8C85.3026 48.6667 85.2359 48.5083 85.2359 48.325V32.175C85.2359 31.9917 85.3026 31.8333 85.4359 31.7C85.5693 31.5667 85.7276 31.5 85.9109 31.5H95.6359C97.1359 31.5 98.4443 31.7417 99.5609 32.225C100.694 32.7083 101.561 33.4083 102.161 34.325C102.761 35.2417 103.061 36.3167 103.061 37.55C103.061 39.8167 102.186 41.4583 100.436 42.475L103.511 48.225ZM95.1109 38.8C95.4776 38.8 95.7609 38.6833 95.9609 38.45C96.1609 38.2 96.2609 37.8917 96.2609 37.525C96.2609 37.1583 96.1609 36.8417 95.9609 36.575C95.7776 36.2917 95.4943 36.15 95.1109 36.15H91.9859V38.8H95.1109ZM124.101 41.775C124.101 44.225 123.293 46.0833 121.676 47.35L123.526 49.85C123.576 49.95 123.601 50.025 123.601 50.075V50.15C123.601 50.2833 123.551 50.3917 123.451 50.475C123.351 50.575 123.235 50.625 123.101 50.625H118.326C118.026 50.625 117.768 50.55 117.551 50.4C117.335 50.2667 117.185 50.1333 117.101 50L116.451 49.175C115.935 49.225 115.385 49.25 114.801 49.25C111.985 49.25 109.726 48.6417 108.026 47.425C106.343 46.2083 105.501 44.3083 105.501 41.725V38.775C105.501 36.1917 106.343 34.2917 108.026 33.075C109.726 31.8583 111.985 31.25 114.801 31.25C117.618 31.25 119.868 31.8583 121.551 33.075C123.251 34.2917 124.101 36.175 124.101 38.725V41.775ZM112.251 42.25C112.251 42.9333 112.476 43.4583 112.926 43.825C113.393 44.1917 114.018 44.375 114.801 44.375C115.585 44.375 116.201 44.1917 116.651 43.825C117.118 43.4417 117.351 42.9083 117.351 42.225V38.275C117.351 37.5917 117.118 37.0667 116.651 36.7C116.201 36.3167 115.585 36.125 114.801 36.125C114.018 36.125 113.393 36.3083 112.926 36.675C112.476 37.0417 112.251 37.5667 112.251 38.25V42.25ZM136.066 49.25C133.266 49.25 131.041 48.6417 129.391 47.425C127.758 46.2083 126.941 44.3083 126.941 41.725V32.175C126.941 31.9917 127.008 31.8333 127.141 31.7C127.275 31.5667 127.433 31.5 127.616 31.5H132.841C133.025 31.5 133.183 31.5667 133.316 31.7C133.45 31.8333 133.516 31.9917 133.516 32.175V42.125C133.516 42.8083 133.741 43.3333 134.191 43.7C134.658 44.0667 135.283 44.25 136.066 44.25C136.85 44.25 137.466 44.0667 137.916 43.7C138.383 43.3333 138.616 42.8083 138.616 42.125V32.175C138.616 31.9917 138.683 31.8333 138.816 31.7C138.95 31.5667 139.108 31.5 139.291 31.5H144.516C144.7 31.5 144.858 31.5667 144.991 31.7C145.125 31.8333 145.191 31.9917 145.191 32.175V41.725C145.191 44.3083 144.366 46.2083 142.716 47.425C141.083 48.6417 138.866 49.25 136.066 49.25ZM165.407 44.125C165.59 44.125 165.748 44.1917 165.882 44.325C166.015 44.4583 166.082 44.6167 166.082 44.8V48.325C166.082 48.5083 166.015 48.6667 165.882 48.8C165.748 48.9333 165.59 49 165.407 49H149.607C149.423 49 149.265 48.9333 149.132 48.8C148.998 48.6667 148.932 48.5083 148.932 48.325V32.175C148.932 31.9917 148.998 31.8333 149.132 31.7C149.265 31.5667 149.423 31.5 149.607 31.5H165.157C165.34 31.5 165.498 31.5667 165.632 31.7C165.765 31.8333 165.832 31.9917 165.832 32.175V35.7C165.832 35.8833 165.765 36.0417 165.632 36.175C165.498 36.3083 165.34 36.375 165.157 36.375H155.432V37.95H163.782C163.965 37.95 164.123 38.0167 164.257 38.15C164.39 38.2833 164.457 38.4417 164.457 38.625V41.875C164.457 42.0583 164.39 42.2167 164.257 42.35C164.123 42.4833 163.965 42.55 163.782 42.55H155.432V44.125H165.407Z" fill="url(#paint0_linear_113_1342)"/>
<defs>
<linearGradient id="paint0_linear_113_1342" x1="40" y1="26" x2="168" y2="26" gradientUnits="userSpaceOnUse">
<stop stop-color="#2C75E2"/>
<stop offset="1" stop-color="#00C637"/>
</linearGradient>
</defs>
</svg>
